<?xml version="1.0" standalone="no"?>
<!DOCTYPE svg PUBLIC "-//W3C//DTD SVG 20010904//EN"
 "http://www.w3.org/TR/2001/REC-SVG-20010904/DTD/svg10.dtd">
<svg version="1.0" xmlns="http://www.w3.org/2000/svg"
 width="564.000000pt" height="126.000000pt" viewBox="0 0 564.000000 126.000000"
 preserveAspectRatio="xMidYMid meet">

<g transform="translate(0.000000,126.000000) scale(0.100000,-0.100000)"
fill="#000000" stroke="none">
<path d="M81 1243 c-19 -10 -44 -31 -55 -46 -21 -28 -21 -38 -21 -567 0 -531
0 -539 21 -567 41 -56 55 -58 344 -58 295 0 301 1 337 68 17 29 18 74 18 562
0 490 -1 533 -18 558 -39 60 -47 62 -332 65 -233 2 -264 1 -294 -15z m209
-182 l0 -139 30 30 c28 28 34 29 88 25 31 -3 66 -6 77 -8 14 -3 21 2 23 18 4
30 50 65 80 61 33 -4 66 -49 58 -76 -14 -43 -81 -39 -92 5 -5 18 -9 21 -15 11
-15 -23 -10 -54 16 -105 89 -170 -16 -373 -192 -373 -90 0 -143 -33 -128 -80
9 -28 36 -33 155 -25 72 5 120 3 143 -4 112 -37 140 -201 48 -284 -115 -104
-401 -51 -401 74 0 41 9 58 42 75 30 16 30 16 9 30 -28 20 -51 66 -51 101 1
48 34 108 68 122 l31 13 -29 24 c-66 56 -68 66 -76 341 -7 244 -8 252 -28 257
-12 3 -31 6 -43 6 -13 0 -23 6 -23 15 0 14 17 16 168 23 l42 2 0 -139z"/>
<path d="M336 925 c-34 -37 -50 -120 -44 -232 7 -124 36 -166 104 -149 46 12
59 57 59 208 0 123 -2 139 -21 165 -29 38 -67 42 -98 8z"/>
<path d="M340 269 c-51 -16 -70 -37 -70 -79 0 -59 34 -84 125 -88 86 -5 137 9
165 45 27 35 25 74 -5 103 -21 20 -37 24 -102 26 -43 2 -94 -1 -113 -7z"/>
<path d="M1010 1143 c-96 -4 -130 -12 -130 -28 0 -11 12 -15 43 -15 75 0 71
27 63 -409 -7 -380 -7 -391 12 -391 13 0 26 16 42 50 l24 50 30 -36 c36 -44
80 -64 141 -64 156 0 272 170 243 357 -11 71 -37 121 -87 166 -92 83 -197 71
-258 -28 -9 -16 -12 18 -12 168 l-1 187 -22 -2 c-13 -1 -52 -3 -88 -5z m270
-313 c38 -21 55 -95 55 -245 0 -154 -11 -202 -52 -235 -54 -42 -120 -14 -142
62 -19 63 -17 252 3 323 26 89 79 126 136 95z"/>
<path d="M2783 1143 c-97 -5 -99 -32 -3 -43 l45 -5 3 -365 c2 -334 1 -366 -15
-377 -9 -7 -27 -13 -40 -13 -13 0 -23 -6 -23 -14 0 -12 26 -16 145 -18 133 -3
145 -2 145 15 0 11 -8 17 -24 17 -53 0 -56 6 -56 99 l0 87 38 37 39 38 47
-107 c61 -139 62 -148 14 -152 -28 -2 -38 -8 -38 -20 0 -15 16 -17 150 -17
136 0 150 2 150 18 0 12 -8 17 -27 17 -16 0 -33 4 -39 8 -14 9 -154 329 -154
351 0 21 84 103 127 125 18 9 41 16 53 16 11 0 20 7 20 15 0 13 -23 15 -145
15 -122 0 -145 -2 -145 -15 0 -8 6 -15 13 -15 6 0 29 -5 50 -11 61 -17 52 -45
-50 -154 -49 -51 -91 -93 -95 -94 -5 0 -8 46 -8 102 0 57 -3 186 -7 285 l-6
182 -46 -2 c-25 -1 -79 -4 -118 -5z"/>
<path d="M4019 1121 c-38 -39 -38 -74 1 -113 26 -25 36 -29 63 -24 73 15 97
96 43 142 -37 32 -71 30 -107 -5z"/>
<path d="M5426 1065 c-13 -110 -66 -183 -149 -206 -23 -6 -48 -13 -55 -15 -8
-2 -12 -10 -10 -17 3 -7 28 -13 64 -15 l59 -3 -3 -215 c-4 -245 -2 -251 71
-285 83 -37 181 -18 214 43 22 41 27 258 6 265 -10 4 -13 -19 -13 -94 0 -150
-18 -193 -83 -193 -13 0 -32 9 -43 21 -17 19 -19 42 -22 245 l-4 224 86 0 c85
0 86 0 86 25 0 25 -1 25 -85 25 l-85 0 0 125 c0 99 -3 125 -14 125 -9 0 -15
-18 -20 -55z"/>
<path d="M3735 975 c-18 -18 -25 -35 -25 -65 l0 -41 -49 7 c-107 14 -216 -39
-253 -123 -25 -58 -21 -127 12 -172 l22 -32 -22 -21 c-27 -25 -50 -78 -50
-114 0 -38 30 -94 57 -107 26 -12 31 -27 8 -27 -25 0 -65 -47 -65 -75 0 -48
27 -82 87 -112 53 -25 68 -28 163 -28 186 0 252 46 258 179 4 86 -16 124 -80
157 -40 21 -51 21 -190 15 -140 -7 -148 -6 -168 14 -23 23 -24 33 -10 60 19
36 44 41 111 24 160 -41 299 35 299 163 0 67 -12 97 -61 150 -34 37 -40 49
-37 80 3 40 23 56 25 22 3 -41 64 -55 83 -20 15 29 12 49 -10 71 -28 28 -75
26 -105 -5z m-76 -140 c37 -19 51 -60 51 -154 0 -91 -21 -135 -69 -146 -55
-12 -96 26 -111 103 -14 76 2 150 40 185 35 31 49 33 89 12z m110 -561 c65
-26 76 -90 23 -137 -78 -70 -293 -58 -322 18 -22 58 -1 96 65 120 55 19 185
19 234 -1z"/>
<path d="M1665 866 c-41 -18 -93 -79 -100 -118 -14 -74 43 -128 93 -91 14 10
28 27 32 38 10 27 -6 66 -30 72 -27 7 -25 19 9 54 24 23 38 29 75 29 66 0 86
-29 86 -126 0 -66 -2 -75 -23 -89 -13 -8 -52 -18 -88 -21 -77 -8 -106 -22
-147 -68 -51 -58 -56 -164 -11 -212 55 -58 181 -52 242 11 l31 33 23 -33 c26
-38 77 -58 124 -48 65 13 99 101 84 219 -10 84 -27 60 -29 -43 -2 -94 -12
-123 -46 -123 -10 0 -22 8 -26 18 -5 9 -9 108 -9 219 0 201 0 201 -25 228 -39
43 -96 65 -170 64 -36 0 -79 -6 -95 -13z m154 -434 c-23 -83 -116 -122 -146
-62 -18 35 -16 116 4 157 17 36 27 43 103 65 l45 13 3 -65 c2 -36 -2 -84 -9
-108z"/>
<path d="M2168 873 c-90 -3 -98 -5 -98 -23 0 -16 7 -20 34 -20 69 0 66 12 66
-241 l0 -229 -26 -10 c-14 -6 -36 -10 -50 -10 -18 0 -24 -5 -24 -21 0 -15 4
-19 16 -15 9 3 80 6 160 6 115 0 142 3 138 13 -3 8 -22 18 -42 23 l-37 9 -3
100 c-6 210 27 340 93 372 33 16 39 16 63 2 15 -8 32 -30 39 -49 13 -39 18
-397 5 -417 -4 -6 -24 -14 -45 -18 -21 -4 -37 -13 -37 -21 0 -11 29 -14 150
-14 120 0 150 3 150 14 0 7 -18 17 -42 22 l-43 9 0 217 0 217 -29 30 c-80 83
-228 76 -276 -13 -20 -39 -30 -31 -30 24 0 42 -3 50 -17 48 -10 -1 -62 -4
-115 -5z"/>
<path d="M4110 874 c-14 -2 -64 -6 -112 -9 -66 -5 -88 -10 -88 -21 0 -9 12
-14 38 -14 66 0 64 7 60 -243 -1 -124 -6 -228 -10 -232 -3 -4 -25 -9 -47 -12
-25 -4 -41 -11 -41 -19 0 -11 31 -14 160 -14 129 0 158 3 154 13 -3 8 -22 18
-42 23 l-37 9 3 263 c1 144 -1 261 -5 261 -5 -1 -19 -3 -33 -5z"/>
<path d="M4338 873 c-90 -3 -98 -5 -98 -23 0 -17 7 -20 43 -20 24 0 48 -5 55
-12 13 -13 15 -212 3 -373 l-6 -89 -42 -9 c-27 -5 -43 -14 -43 -23 0 -12 27
-14 154 -14 85 0 161 -3 170 -6 12 -4 16 0 16 15 0 17 -6 21 -32 21 -79 0 -78
-1 -78 134 0 185 23 301 70 348 16 15 37 28 47 28 16 0 16 -2 -3 -18 -64 -51
-16 -152 57 -122 68 29 52 146 -22 164 -60 15 -104 -19 -141 -109 -12 -28 -13
-26 -16 43 -2 61 -5 72 -20 70 -9 -1 -61 -4 -114 -5z"/>
<path d="M4862 854 c-97 -48 -152 -148 -152 -274 0 -92 27 -163 82 -217 126
-124 319 -85 406 81 23 44 26 63 26 141 0 102 -17 154 -75 220 -69 78 -187 99
-287 49z m163 -28 c37 -37 57 -123 57 -246 1 -127 -18 -197 -63 -235 -64 -53
-128 -14 -155 95 -21 83 -15 265 10 325 36 86 100 112 151 61z"/>
</g>
</svg>
