<?xml version="1.0" standalone="no"?>
<!DOCTYPE svg PUBLIC "-//W3C//DTD SVG 20010904//EN"
 "http://www.w3.org/TR/2001/REC-SVG-20010904/DTD/svg10.dtd">
<svg version="1.0" xmlns="http://www.w3.org/2000/svg"
 width="559.000000pt" height="90.000000pt" viewBox="0 0 559.000000 90.000000"
 preserveAspectRatio="xMidYMid meet">

<g transform="translate(0.000000,90.000000) scale(0.100000,-0.100000)"
fill="#000000" stroke="none">
<path d="M345 790 c-117 -21 -222 -80 -268 -149 -32 -49 -67 -153 -67 -200 0
-63 38 -164 82 -221 34 -43 110 -90 183 -113 98 -30 262 -30 360 0 118 37 205
114 240 213 19 53 19 191 1 243 -35 96 -122 172 -237 208 -73 23 -220 32 -294
19z m357 -172 c40 -12 98 -57 98 -76 0 -5 -11 -13 -25 -16 -17 -4 -31 0 -45
14 -60 60 -186 52 -239 -16 -19 -24 -22 -38 -19 -81 5 -57 23 -85 72 -110 61
-31 170 -11 196 36 18 35 11 40 -62 43 -65 3 -73 5 -73 23 0 18 8 20 98 23
l97 3 0 -96 c0 -90 -1 -95 -21 -95 -12 0 -23 8 -26 19 -5 19 -6 19 -36 1 -105
-60 -260 -10 -297 95 l-10 30 -115 -3 -114 -3 -3 -67 c-3 -65 -4 -67 -30 -70
l-28 -3 0 175 0 176 144 0 c128 0 146 -2 169 -20 l25 -20 48 25 c53 28 129 33
196 13z"/>
<path d="M180 515 l0 -55 96 0 c113 0 134 8 134 53 0 51 -13 57 -127 57 l-103
0 0 -55z"/>
<path d="M3520 734 c-152 -41 -234 -144 -234 -294 1 -185 134 -305 339 -304
90 0 163 21 216 60 l34 25 3 -35 c3 -34 5 -36 38 -36 l35 0 -3 153 -3 152
-160 0 -160 0 -3 -32 -3 -33 130 0 c145 0 144 0 117 -64 -43 -103 -221 -156
-349 -102 -131 54 -189 231 -114 345 86 129 306 151 429 42 39 -35 45 -37 75
-28 18 6 33 15 33 22 0 17 -71 81 -115 103 -86 42 -206 52 -305 26z"/>
<path d="M1150 446 l0 -296 45 0 45 0 0 115 0 115 163 0 c89 1 182 5 206 9 81
16 132 72 138 153 6 75 -26 134 -92 168 -48 24 -57 25 -277 29 l-228 3 0 -296z
m450 209 c61 -31 80 -107 39 -158 -31 -40 -77 -48 -249 -45 l-155 3 -3 94 c-1
52 -1 100 2 108 8 20 326 19 366 -2z"/>
<path d="M1850 445 l0 -295 40 0 40 0 0 295 0 295 -40 0 -40 0 0 -295z"/>
<path d="M4110 665 c0 -34 1 -35 40 -35 39 0 40 1 40 35 0 34 -1 35 -40 35
-39 0 -40 -1 -40 -35z"/>
<path d="M5330 625 l0 -65 -34 0 c-30 0 -34 -3 -38 -30 -4 -29 -3 -30 34 -30
l38 0 0 -154 c0 -196 3 -201 112 -201 l73 0 3 33 3 32 -50 0 c-39 0 -53 4 -61
19 -5 11 -10 76 -10 145 l0 126 61 0 c60 0 60 0 57 28 -3 26 -6 27 -60 30
l-58 3 0 64 0 65 -35 0 -35 0 0 -65z"/>
<path d="M2830 561 c-88 -19 -137 -74 -124 -140 13 -62 64 -85 214 -96 103 -8
147 -20 160 -46 29 -52 -40 -83 -169 -77 -71 3 -96 9 -135 31 l-48 27 -31 -22
-30 -21 28 -23 c63 -50 230 -77 339 -54 77 16 125 58 132 115 11 89 -36 118
-211 135 -130 12 -168 27 -163 63 5 32 44 47 131 47 57 0 91 -6 127 -21 48
-20 48 -20 86 -1 l37 19 -66 33 c-57 28 -79 33 -154 36 -49 1 -104 -1 -123 -5z"/>
<path d="M4117 554 c-4 -4 -7 -97 -7 -206 l0 -198 40 0 40 0 -2 203 -3 202
-30 3 c-17 2 -34 0 -38 -4z"/>
<path d="M4347 553 c-4 -3 -7 -96 -7 -205 l0 -198 40 0 40 0 0 134 c0 117 2
136 20 158 27 35 70 51 129 46 l51 -3 0 38 0 37 -59 0 c-43 0 -70 -7 -105 -25
l-46 -24 0 24 c0 21 -5 25 -28 25 -16 0 -32 -3 -35 -7z"/>
<path d="M4806 544 c-92 -33 -146 -108 -146 -200 0 -109 73 -184 200 -203 187
-30 331 63 330 211 -1 91 -60 165 -156 194 -60 18 -177 17 -228 -2z m221 -69
c151 -76 85 -275 -91 -275 -149 0 -233 87 -191 196 37 97 171 134 282 79z"/>
<path d="M2080 543 c-1 -5 -1 -73 -1 -151 0 -171 8 -193 86 -232 41 -20 65
-25 130 -25 69 0 87 4 129 28 58 32 56 32 56 7 0 -16 7 -20 35 -20 l35 0 0
200 0 200 -35 0 -35 0 0 -117 c0 -136 -13 -175 -70 -208 -50 -29 -167 -29
-207 1 -46 34 -53 58 -53 197 l0 127 -35 0 c-19 0 -35 -3 -35 -7z"/>
</g>
</svg>
